<svg width="20" height="20" viewBox="0 0 20 20" fill="none" xmlns="http://www.w3.org/2000/svg">
<path d="M10.6186 9.57806V6.90275C11.7114 7.24993 11.8557 8.61822 11.8763 8.67948L11.897 8.92455L13.1341 8.80201L13.0928 8.53653C13.0104 7.63795 12.3712 5.92249 10.6186 5.63658V4.5542H9.3815V5.657C8.61861 5.79995 7.9382 6.16755 7.50521 6.65768C7.01036 7.20908 6.8248 7.90344 6.92789 8.67948C7.11346 10.0682 8.57737 10.5379 9.40212 10.6809V12.7843C8.20624 12.3759 8.18562 11.4161 8.18562 11.3548V11.1097L6.94851 11.0893V11.3344C6.94851 11.3548 6.94851 13.4991 9.42273 14.0505V15.3575H10.6598V14.1322C11.0722 14.0914 11.7526 13.9484 12.3093 13.4583C12.8042 12.9886 13.0928 12.2738 13.0928 11.4161C13.0928 10.0886 11.5052 9.70059 10.6186 9.57806ZM11.8557 11.4161C11.8557 11.9266 11.7114 12.3146 11.4227 12.5801C11.2165 12.7639 10.9279 12.8865 10.6186 12.9477V10.8238C11.3196 10.9463 11.8557 11.1914 11.8557 11.4161ZM8.14438 8.5161C8.08253 8.08724 8.18562 7.74006 8.43304 7.47457C8.70108 7.16824 9.09284 7.00486 9.3815 6.92317V9.41468C8.84541 9.31257 8.20624 9.04708 8.14438 8.5161Z" fill="#333333"/>
<path d="M10 0C4.47423 0 0 4.43162 0 9.90476C0 15.3575 4.49484 19.8095 10 19.8095C15.5052 19.8095 20 15.3575 20 9.90476C20 4.43162 15.5052 0 10 0ZM10 18.1349C5.42268 18.1349 1.69072 14.4385 1.69072 9.90476C1.69072 5.35061 5.42268 1.6542 10 1.6542C14.5773 1.6542 18.3093 5.35061 18.3093 9.88434C18.3093 14.4385 14.5773 18.1349 10 18.1349Z" fill="#333333"/>
</svg>
