<svg width="20" height="20" viewBox="0 0 20 20" fill="none" xmlns="http://www.w3.org/2000/svg">
<g clip-path="url(#clip0_273_2288)">
<path d="M14.4 7.54165C14.5992 6.85858 14.6367 6.13849 14.5094 5.43843C14.3821 4.73837 14.0936 4.07755 13.6667 3.50832C13.2397 2.93909 12.6861 2.47707 12.0497 2.15886C11.4133 1.84065 10.7115 1.67499 10 1.67499C9.28846 1.67499 8.58669 1.84065 7.95027 2.15886C7.31385 2.47707 6.76026 2.93909 6.33333 3.50832C5.90641 4.07755 5.61788 4.73837 5.49059 5.43843C5.36331 6.13849 5.40077 6.85858 5.6 7.54165C4.84832 7.64971 4.13527 7.94284 3.52493 8.39471C2.9146 8.84658 2.4261 9.44303 2.10335 10.1304C1.78061 10.8178 1.63372 11.5747 1.6759 12.3329C1.71808 13.0911 1.94799 13.827 2.34499 14.4744C2.74198 15.1218 3.29361 15.6603 3.9503 16.0417C4.60699 16.4231 5.34815 16.6354 6.10718 16.6594C6.8662 16.6834 7.6193 16.5185 8.29879 16.1794C8.97828 15.8403 9.56286 15.3376 10 14.7167C10.436 15.3393 11.0201 15.8438 11.6996 16.1846C12.3791 16.5253 13.1327 16.6918 13.8925 16.6689C14.6523 16.646 15.3945 16.4344 16.0522 16.0533C16.7099 15.6722 17.2625 15.1335 17.6603 14.4857C18.058 13.8379 18.2884 13.1013 18.3306 12.3423C18.3728 11.5833 18.2256 10.8257 17.9023 10.1378C17.5789 9.44985 17.0895 8.85314 16.4781 8.4014C15.8667 7.94966 15.1526 7.65707 14.4 7.54999V7.54165Z" stroke="#333333" stroke-width="1.5" stroke-linecap="round" stroke-linejoin="round"/>
<path d="M10 14.7167V18.3333" stroke="#333333" stroke-width="1.5" stroke-linecap="round" stroke-linejoin="round"/>
</g>
<defs>
<clipPath id="clip0_273_2288">
<rect width="20" height="20" fill="white"/>
</clipPath>
</defs>
</svg>
