<svg width="21" height="20" viewBox="0 0 21 20" fill="none" xmlns="http://www.w3.org/2000/svg">
<path d="M16.31 6.47778C16.3333 6.28933 16.3333 6.07733 16.3333 5.88889C16.3333 2.63822 13.72 0 10.5 0C7.28 0 4.66667 2.63822 4.66667 5.88889C4.66667 6.07733 4.66667 6.28933 4.69 6.47778C2.03 6.996 0 9.39867 0 12.2489C0 15.4996 2.61333 18.1378 5.83333 18.1378C7.37333 18.1378 8.75 17.5489 9.8 16.5596V18.4933C9.8 18.8938 10.1033 19.2 10.5 19.2C10.8967 19.2 11.2 18.8938 11.2 18.4933V16.5596C12.25 17.5253 13.6267 18.1378 15.1667 18.1378C18.3867 18.1378 21 15.4996 21 12.2489C21 9.39867 18.97 6.996 16.31 6.47778ZM15.1667 16.7244C13.7667 16.7244 12.46 16.0649 11.62 14.9342L10.5 13.4267L9.38 14.9342C8.54 16.0649 7.23333 16.7244 5.83333 16.7244C3.38333 16.7244 1.4 14.7222 1.4 12.2489C1.4 10.1289 2.89333 8.268 4.97 7.86756L6.20667 7.60844L6.09 6.33644C6.06667 6.19511 6.06667 6.03022 6.06667 5.88889C6.06667 3.41556 8.05 1.41333 10.5 1.41333C12.95 1.41333 14.9333 3.41556 14.9333 5.88889C14.9333 6.03022 14.9333 6.19511 14.91 6.33644L14.7933 7.60844L16.03 7.86756C18.1067 8.268 19.6 10.1289 19.6 12.2489C19.6 14.7222 17.6167 16.7244 15.1667 16.7244Z" fill="#333333"/>
</svg>
