<svg width="18" height="23" viewBox="0 0 18 23" fill="none" xmlns="http://www.w3.org/2000/svg">
<path d="M12.3966 21.2764H5.60292C5.19269 21.2764 4.85986 21.6092 4.85986 22.0194C4.85986 22.4296 5.19269 22.7625 5.60292 22.7625H12.3966C12.8069 22.7625 13.1397 22.4296 13.1397 22.0194C13.1397 21.6092 12.8069 21.2764 12.3966 21.2764Z" fill="#333333"/>
<path d="M17.2571 2.33776H14.3605V0.93153C14.3605 0.521305 14.0276 0.188477 13.6174 0.188477H4.38274C3.97252 0.188477 3.63969 0.521305 3.63969 0.93153V2.33776H0.743053C0.332828 2.33776 0 2.67059 0 3.08082V7.88293C0 9.17064 0.765283 10.3302 1.95044 10.8367C2.04623 10.8778 2.14489 10.8966 2.2426 10.8966C2.53092 10.8966 2.8057 10.7278 2.92563 10.4458C3.0872 10.0684 2.91209 9.63164 2.53476 9.47053C1.89719 9.19818 1.48601 8.57465 1.48601 7.88288V3.82377H3.63964V10.4434C3.63964 13.1463 5.65222 15.3823 8.25649 15.746V19.0293H7.00071C6.59048 19.0293 6.25765 19.3622 6.25765 19.7724C6.25765 20.1826 6.59048 20.5154 7.00071 20.5154H10.8223C11.2325 20.5154 11.5653 20.1826 11.5653 19.7724C11.5653 19.3622 11.2325 19.0293 10.8223 19.0293H9.74255V15.746C12.347 15.3823 14.3604 13.1462 14.3604 10.4434V3.82387H16.514V7.88298C16.514 8.57475 16.1028 9.19828 15.4652 9.47063C15.0879 9.63174 14.9128 10.0685 15.0744 10.4459C15.1944 10.7279 15.4691 10.8967 15.7574 10.8967C15.8551 10.8967 15.9538 10.8779 16.0496 10.8368C17.2347 10.3303 18 9.17074 18 7.88303V3.08082C18.0002 2.67059 17.6674 2.33776 17.2571 2.33776ZM12.8744 10.4434C12.8744 12.5796 11.1358 14.3177 8.9996 14.3177C6.86334 14.3177 5.12575 12.5796 5.12575 10.4434V1.67458H12.8744L12.8744 10.4434Z" fill="#333333"/>
</svg>
