<svg width="23" height="21" viewBox="0 0 23 21" fill="none" xmlns="http://www.w3.org/2000/svg">
<path d="M11.9795 9.82279C9.32002 9.82279 7.15576 7.62017 7.15576 4.91263C7.15576 2.20361 9.32002 0 11.9795 0C14.6384 0 16.8039 2.20361 16.8039 4.91263C16.8039 7.62017 14.6386 9.82279 11.9795 9.82279ZM11.9795 1.36937C10.0605 1.36937 8.49995 2.95902 8.49995 4.91263C8.49995 6.86525 10.0605 8.45392 11.9795 8.45392C13.8979 8.45392 15.4594 6.86525 15.4594 4.91263C15.4594 2.95902 13.8979 1.36937 11.9795 1.36937Z" fill="#333333"/>
<path d="M3.048 9.82275C1.36783 9.82275 0 8.39027 0 6.63019C0 4.8701 1.36783 3.43811 3.048 3.43811C4.7289 3.43811 6.09673 4.8701 6.09673 6.63019C6.09673 8.39027 4.72915 9.82275 3.048 9.82275ZM3.048 4.80699C2.1083 4.80699 1.34443 5.62551 1.34443 6.63019C1.34443 7.63535 2.1083 8.45388 3.048 8.45388C3.98819 8.45388 4.7523 7.63535 4.7523 6.63019C4.7523 5.62551 3.98819 4.80699 3.048 4.80699Z" fill="#333333"/>
<path d="M12.8875 20.5047H3.91494C2.03047 20.5047 1.34619 18.9415 1.34619 17.8887V13.299C1.34619 11.3796 2.88286 10.6841 3.91494 10.6841H12.8875C14.7717 10.6841 15.4552 12.2472 15.4552 13.299V17.8885C15.455 19.8087 13.9195 20.5047 12.8875 20.5047ZM3.91494 12.0525C3.63153 12.0584 2.69086 12.1622 2.69086 13.299V17.8885C2.6952 18.1775 2.79844 19.1355 3.91494 19.1355H12.8838C13.1745 19.1297 14.1106 19.0223 14.1106 17.8885V13.299C14.105 13.0107 14.0032 12.0525 12.8875 12.0525H3.91494Z" fill="#333333"/>
<path d="M21.6006 19.3693C21.3584 19.3693 21.1119 19.2958 20.8432 19.1451L16.6611 16.7803V14.3925L20.8432 12.0303C20.9043 11.9944 21.2318 11.8191 21.6095 11.8191C22.1392 11.8191 22.7581 12.1816 22.7581 13.201V17.9677C22.7581 18.0173 22.7523 18.2759 22.6599 18.549C22.488 19.0618 22.0912 19.3693 21.6006 19.3693ZM18.0058 15.9731L21.3862 17.8855L21.4137 13.299L18.0058 15.2015V15.9731Z" fill="#333333"/>
</svg>
