<svg width="24" height="20" viewBox="0 0 24 20" fill="none" xmlns="http://www.w3.org/2000/svg">
<path d="M1.97801 8.07568C2.49058 8.29746 2.98496 8.55773 3.45676 8.85417C4.71775 9.70312 5.80259 10.78 6.65332 12.0274C6.64044 12.1483 6.59939 12.47 6.53982 12.9292C6.4392 13.7077 6.29833 14.8189 6.16309 15.9491H4.1265C3.98563 12.3048 3.40202 10.5091 2.58416 9.05017C2.39579 8.71507 2.1865 8.39814 1.97801 8.07568Z" fill="white"/>
<path d="M6.03027 17.1345C6.00371 17.3779 5.97876 17.6182 5.95702 17.8458C5.93053 18.0681 5.81927 18.2723 5.64564 18.4172C5.47202 18.5622 5.2489 18.6372 5.02121 18.6272C4.79351 18.6172 4.57812 18.5229 4.4184 18.3633C4.25867 18.2036 4.16646 17.9905 4.16031 17.7668C4.16031 17.5479 4.16031 17.3408 4.15548 17.1345H6.03027Z" fill="white"/>
<path d="M3.171 0.519224C3.64121 0.220741 4.18103 0.0446175 4.73967 0.00742504C5.29831 -0.0297674 5.8574 0.0731944 6.36435 0.306622C6.43989 0.338071 6.50812 0.38431 6.56485 0.442514C6.62159 0.500719 6.66564 0.569668 6.69432 0.64515C6.72301 0.720632 6.73572 0.801063 6.73168 0.88153C6.72764 0.961997 6.70694 1.04081 6.67083 1.11316C6.63473 1.18551 6.58398 1.24987 6.52169 1.30231C6.45941 1.35476 6.38688 1.39419 6.30855 1.41819C6.23022 1.44219 6.14773 1.45027 6.06611 1.44192C5.9845 1.43357 5.90547 1.40897 5.83387 1.36963C5.5119 1.22557 5.15799 1.164 4.80521 1.19067C4.45243 1.21735 4.11229 1.3314 3.81659 1.52217C2.19537 2.52353 0.918674 4.56577 1.27287 6.47919C2.26936 6.86382 3.22984 7.33295 4.14341 7.88125C6.14079 9.23462 7.73017 11.091 8.74466 13.2556C8.86004 13.5275 8.97167 13.7951 9.07953 14.0586C10.2403 16.8753 11.0171 18.7429 14.5703 18.6425H19.8131C20.2893 18.6769 20.7654 18.576 21.1847 18.3517C21.6039 18.1275 21.9485 17.7894 22.1773 17.378C22.4431 16.876 22.5646 16.3124 22.529 15.7477C22.4934 15.183 22.302 14.6384 21.9753 14.1724C21.5569 13.6563 21.0226 13.2422 20.4142 12.9627C19.8057 12.6831 19.1396 12.5456 18.468 12.5609C18.1575 13.0706 17.7298 13.5018 17.219 13.82C16.7082 14.1381 16.1286 14.3343 15.5266 14.3929C13.4449 14.3929 12.1368 11.5903 10.6219 8.34439C9.89705 6.66674 9.03758 5.0483 8.05158 3.50434C8.00436 3.44009 7.97075 3.36719 7.95272 3.28996C7.93469 3.21272 7.93262 3.13273 7.94662 3.0547C7.96062 2.97666 7.99041 2.90218 8.03424 2.83565C8.07806 2.76911 8.13503 2.71188 8.20177 2.66734C8.2685 2.62279 8.34366 2.59183 8.4228 2.57629C8.50193 2.56076 8.58343 2.56095 8.66249 2.57687C8.74154 2.59279 8.81655 2.62411 8.88306 2.66897C8.94958 2.71384 9.00626 2.77134 9.04975 2.83809C10.0755 4.43598 10.9685 6.11245 11.7199 7.85122C12.9491 10.4846 14.2193 13.2074 15.5266 13.2074C16.7268 13.2074 17.5986 11.6962 17.6059 11.6828C17.6565 11.5923 17.7302 11.5164 17.8199 11.4625C17.9095 11.4086 18.0119 11.3785 18.117 11.3754C19.7519 11.3287 21.8771 11.8677 22.9815 13.5164C23.4294 14.1633 23.6896 14.9177 23.7343 15.6988C23.779 16.4798 23.6064 17.2581 23.2351 17.9502C22.9015 18.554 22.3991 19.0516 21.7872 19.3846C21.1753 19.7175 20.4792 19.872 19.7809 19.8296V19.7625C19.1611 19.8304 17.7902 19.8328 14.5864 19.8296C14.4962 19.8296 14.4077 19.8296 14.3199 19.8296C10.1582 19.8296 9.08759 17.2389 7.96062 14.4996C7.85597 14.2443 7.74891 13.9859 7.64909 13.748C7.49292 14.9619 7.28846 16.5987 7.15644 17.9605C7.1127 18.472 6.87177 18.9479 6.48283 19.291C6.09388 19.6341 5.58624 19.8186 5.0635 19.8067C5.03077 19.8067 4.99776 19.8067 4.96449 19.8067C4.42386 19.7955 3.90949 19.5756 3.53281 19.1947C3.15614 18.8138 2.94748 18.3025 2.95205 17.7716C2.95205 13.1086 2.38212 11.1422 1.52563 9.61922C1.29299 9.20508 1.04264 8.81939 0.776194 8.41394L0.731115 8.34597C0.562532 8.08187 0.420973 7.80205 0.308502 7.51058C-0.619638 5.10478 0.610369 2.09912 3.171 0.519224ZM5.01762 18.6267C5.13183 18.6394 5.24748 18.629 5.35749 18.5964C5.4675 18.5637 5.56957 18.5093 5.65748 18.4366C5.74539 18.3639 5.81729 18.2744 5.86879 18.1735C5.92029 18.0726 5.95032 17.9625 5.95703 17.8498C5.97876 17.6183 6.00372 17.3756 6.03028 17.1385H4.15549C4.15549 17.3464 4.16032 17.5535 4.16032 17.7708C4.15671 17.883 4.17631 17.9947 4.21794 18.0992C4.25956 18.2037 4.32234 18.2988 4.40247 18.3788C4.48261 18.4588 4.57844 18.5221 4.68417 18.5647C4.7899 18.6073 4.90334 18.6284 5.01762 18.6267ZM4.12651 15.9491H6.1631C6.29512 14.8189 6.43921 13.7077 6.53983 12.9292C6.5994 12.47 6.64045 12.1483 6.65333 12.0274C5.8026 10.78 4.71777 9.70312 3.45677 8.85416C2.98498 8.55772 2.49059 8.29746 1.97803 8.07568C2.18651 8.39814 2.39581 8.71506 2.58417 9.05017C3.40364 10.5091 3.98242 12.3048 4.12651 15.9491Z" fill="#333333"/>
</svg>
