<svg width="20" height="20" viewBox="0 0 20 20" fill="none" xmlns="http://www.w3.org/2000/svg">
<path d="M2.5 12.5L6.76667 8.23335C7.23506 7.76437 7.87052 7.5006 8.53333 7.50001H10.8333C11.2754 7.50001 11.6993 7.67561 12.0118 7.98817C12.3244 8.30073 12.5 8.72465 12.5 9.16668C12.5 9.60871 12.3244 10.0326 12.0118 10.3452C11.6993 10.6578 11.2754 10.8333 10.8333 10.8333H8.75M12.0833 10.2667L15.5583 6.19168C15.8268 5.89409 16.1991 5.71071 16.5987 5.67927C16.9982 5.64783 17.3947 5.77071 17.7064 6.02265C18.0181 6.27458 18.2214 6.6364 18.2745 7.03366C18.3275 7.43093 18.2263 7.83343 17.9917 8.15835L14.4917 13.1083C14.2625 13.433 13.9593 13.6983 13.6071 13.8824C13.255 14.0664 12.864 14.1639 12.4667 14.1667H8.19167C7.97174 14.1665 7.75395 14.2099 7.55086 14.2942C7.34777 14.3786 7.16338 14.5024 7.00833 14.6583L5.83333 15.8333" stroke="#333333" stroke-width="1.5" stroke-linecap="round" stroke-linejoin="round"/>
<path d="M1.66663 11.6666L6.66663 16.6666" stroke="#333333" stroke-width="1.5" stroke-linecap="round" stroke-linejoin="round"/>
</svg>
