<svg width="20" height="20" viewBox="0 0 20 20" fill="none" xmlns="http://www.w3.org/2000/svg">
<path d="M4.08337 15.9166C0.833374 12.6666 0.833374 7.33331 4.08337 4.08331" stroke="#333333" stroke-width="1.5" stroke-linecap="round" stroke-linejoin="round"/>
<path d="M6.5 13.5C4.58333 11.5834 4.58333 8.41669 6.5 6.41669" stroke="#333333" stroke-width="1.5" stroke-linecap="round" stroke-linejoin="round"/>
<path d="M10 11.6666C10.9205 11.6666 11.6667 10.9205 11.6667 9.99998C11.6667 9.07951 10.9205 8.33331 10 8.33331C9.07957 8.33331 8.33337 9.07951 8.33337 9.99998C8.33337 10.9205 9.07957 11.6666 10 11.6666Z" stroke="#333333" stroke-width="1.5" stroke-linecap="round" stroke-linejoin="round"/>
<path d="M13.5 6.5C15.4167 8.41667 15.4167 11.5833 13.5 13.5833" stroke="#333333" stroke-width="1.5" stroke-linecap="round" stroke-linejoin="round"/>
<path d="M15.9166 4.08331C19.1666 7.33331 19.1666 12.5833 15.9166 15.8333" stroke="#333333" stroke-width="1.5" stroke-linecap="round" stroke-linejoin="round"/>
</svg>
