<svg width="22" height="22" viewBox="0 0 22 22" fill="none" xmlns="http://www.w3.org/2000/svg">
<path d="M10.9999 0C8.82434 0 6.69762 0.645133 4.88869 1.85382C3.07977 3.06251 1.66988 4.78046 0.837324 6.79043C0.00476609 8.8004 -0.213069 11.0121 0.211365 13.1459C0.635799 15.2797 1.68344 17.2397 3.22181 18.778C4.76017 20.3164 6.72017 21.364 8.85394 21.7885C10.9877 22.2129 13.1994 21.9951 15.2094 21.1625C17.2194 20.33 18.9373 18.9201 20.146 17.1111C21.3547 15.3022 21.9998 13.1755 21.9998 10.9999C21.9966 8.08356 20.8366 5.28758 18.7744 3.22541C16.7123 1.16323 13.9163 0.00326489 10.9999 0ZM17.4081 3.63888L14.7837 6.2632C13.7029 5.39543 12.3568 4.92529 10.9708 4.93146C9.58473 4.93764 8.24288 5.41976 7.16984 6.29712L4.54861 3.67589C6.32159 2.10826 8.60474 1.2399 10.9714 1.23309C13.338 1.22628 15.6261 2.08149 17.4081 3.63888ZM10.9999 15.8353C10.0436 15.8353 9.10869 15.5517 8.31351 15.0204C7.51834 14.4891 6.89857 13.7339 6.53259 12.8503C6.16661 11.9668 6.07086 10.9945 6.25743 10.0566C6.44401 9.1186 6.90453 8.25701 7.58078 7.58077C8.25702 6.90453 9.1186 6.444 10.0566 6.25743C10.9946 6.07085 11.9668 6.16661 12.8503 6.53259C13.7339 6.89857 14.4891 7.51833 15.0204 8.31351C15.5517 9.10869 15.8353 10.0436 15.8353 10.9999C15.8329 12.2816 15.3226 13.5101 14.4164 14.4164C13.5101 15.3226 12.2816 15.8329 10.9999 15.8353ZM1.23352 10.9999C1.23241 8.62336 2.10118 6.32857 3.67589 4.5486L6.29712 7.16984C5.41976 8.24287 4.93764 9.58473 4.93147 10.9708C4.92529 12.3568 5.39544 13.7029 6.2632 14.7837L3.63889 17.408C2.08716 15.634 1.2324 13.3568 1.23352 10.9999ZM4.50544 18.2869L7.12667 15.6657C8.20691 16.5674 9.56766 17.0644 10.9748 17.0711C12.3819 17.0779 13.7473 16.594 14.8362 15.7027L17.4574 18.3239C15.6688 19.9055 13.3619 20.7754 10.9744 20.7686C8.58687 20.7617 6.28494 19.8787 4.50544 18.2869ZM18.3239 17.4512L15.7027 14.83C16.594 13.7411 17.0779 12.3757 17.0711 10.9686C17.0644 9.56149 16.5674 8.20074 15.6657 7.12049L18.2869 4.49926C19.8787 6.27876 20.7618 8.58069 20.7686 10.9682C20.7754 13.3557 19.9055 15.6627 18.3239 17.4512Z" fill="#333333"/>
</svg>
