<svg width="19" height="21" viewBox="0 0 19 21" fill="none" xmlns="http://www.w3.org/2000/svg">
<path d="M17.987 7.97626L11.0535 1.51585C10.3354 0.82805 9.22112 0.82805 8.50301 1.51585L1.56953 7.97626C1.1981 8.34473 1 8.83601 1 9.3273V18.4407C1 19.4724 1.84192 20.3567 2.85718 20.3567H6.32392C7.33917 20.3567 8.1811 19.4724 8.1811 18.4407V14.9034C8.1811 14.0191 8.89921 13.3067 9.79065 13.3067C10.5583 13.3067 11.1526 13.8963 11.1526 14.6578V18.4407C11.1526 19.4724 11.9945 20.3567 13.0098 20.3567H16.7241C17.7394 20.3567 18.5813 19.4724 18.5813 18.4407V9.3273C18.5813 8.83601 18.3584 8.34473 17.987 7.97626ZM9.79065 11.5872C7.95823 11.5872 6.44773 13.0856 6.44773 14.9034V18.4407C6.44773 18.5389 6.34868 18.6372 6.32392 18.6372H2.85718C2.83242 18.6372 2.73337 18.5389 2.73337 18.4407V9.3273C2.73337 9.30273 2.75813 9.22904 2.75813 9.22904L9.6916 2.76863C9.74113 2.7195 9.81541 2.7195 9.86494 2.76863L16.7984 9.22904C16.8232 9.2536 16.8479 9.27817 16.8479 9.3273V18.4407C16.8479 18.5389 16.7489 18.6372 16.7241 18.6372H13.0098C12.985 18.6372 12.886 18.5389 12.886 18.4407V14.6578C12.886 12.9628 11.4993 11.5872 9.79065 11.5872Z" fill="#333333" stroke="white" stroke-width="0.2"/>
</svg>
