<svg width="18" height="25" viewBox="0 0 18 25" fill="none" xmlns="http://www.w3.org/2000/svg">
<path d="M8.71047 7.42847C3.90733 7.42847 0 11.3698 0 16.2147C0 21.0596 3.90733 25 8.71047 25C13.5136 25 17.4209 21.0587 17.4209 16.2138C17.4209 11.3689 13.5136 7.42847 8.71047 7.42847ZM8.71047 23.4757C4.74018 23.4757 1.51205 20.2178 1.51205 16.2138C1.51205 12.2099 4.74101 8.95197 8.71047 8.95197C12.6799 8.95197 15.9089 12.2099 15.9089 16.2138C15.9089 20.2178 12.6808 23.4757 8.71047 23.4757Z" fill="#333333"/>
<path d="M11.6464 14.6555L9.03201 12.7916C8.45271 12.3792 7.7013 12.3258 7.06995 12.6552C6.43944 12.9847 6.04736 13.6342 6.04736 14.3498V18.0786C6.04736 18.795 6.43944 19.4445 7.06995 19.7731C7.34533 19.9171 7.64421 19.9874 7.94058 19.9874C8.32426 19.9874 8.70542 19.8688 9.03201 19.6359L11.6473 17.772C12.1485 17.4146 12.4474 16.832 12.4474 16.2129C12.4474 15.5939 12.1485 15.0121 11.6464 14.6555ZM10.7749 16.5279L8.1597 18.3919C7.98843 18.5147 7.8264 18.452 7.76511 18.419C7.70298 18.3868 7.55942 18.2886 7.55942 18.0777V14.349C7.55942 14.1381 7.70298 14.0407 7.76427 14.0077C7.79869 13.9899 7.86334 13.9628 7.94394 13.9628C8.00858 13.9628 8.0833 13.9806 8.1597 14.0348L10.7749 15.8996C10.9143 15.9995 10.9361 16.1384 10.9361 16.2129C10.9361 16.2883 10.9152 16.428 10.7749 16.5279Z" fill="#333333"/>
<path d="M3.3608 2.61152C6.44704 1.15999 10.6474 1.15745 13.7722 2.61236C13.8747 2.66064 13.9821 2.68265 14.0879 2.68265C14.3742 2.68265 14.6471 2.51836 14.7747 2.23974C14.9493 1.85781 14.7839 1.40474 14.4053 1.22859C10.8867 -0.411787 6.20189 -0.407552 2.72274 1.22944C2.34409 1.40812 2.18122 1.8612 2.35669 2.24228C2.53216 2.62337 2.97964 2.78851 3.3608 2.61152Z" fill="#333333"/>
<path d="M8.55664 3.80896C7.32164 3.80896 6.16137 4.0554 5.20259 4.52033C4.8273 4.70325 4.66862 5.15801 4.84997 5.53741C5.03048 5.9168 5.48132 6.07517 5.85829 5.89394C6.61389 5.5264 7.54749 5.33247 8.55664 5.33247C9.55236 5.33247 10.5095 5.53148 11.2542 5.89394C11.3599 5.9456 11.4716 5.96931 11.5816 5.96931C11.8628 5.96931 12.1323 5.8101 12.2633 5.53741C12.4447 5.15801 12.2868 4.7024 11.9107 4.51948C10.9653 4.06217 9.77401 3.80896 8.55664 3.80896Z" fill="#333333"/>
</svg>
