<svg width="21" height="20" viewBox="0 0 21 20" fill="none" xmlns="http://www.w3.org/2000/svg">
<path d="M17.1831 5.48214C17.1831 4.08377 16.0269 2.94739 14.6041 2.94739H2.57896C1.1562 2.94739 0 4.08377 0 5.48214V17.2979C0 18.6963 1.1562 19.8326 2.57896 19.8326H14.6008C16.0236 19.8326 17.1798 18.6963 17.1798 17.2979V5.48214H17.1831ZM15.8503 17.3012C15.8503 17.9758 15.2905 18.526 14.6041 18.526H2.57896C1.89257 18.526 1.3328 17.9758 1.3328 17.3012V5.48214C1.3328 4.80752 1.89257 4.25734 2.57896 4.25734H14.6008C15.2872 4.25734 15.847 4.80752 15.847 5.48214V17.3012H15.8503Z" fill="#333333"/>
<path d="M5.57753 0C5.21101 0 4.91113 0.294739 4.91113 0.654975C4.91113 1.01521 5.21101 1.30995 5.57753 1.30995H17.5994C18.2858 1.30995 18.8455 1.86013 18.8455 2.53475V14.3505C18.8455 14.7107 19.1454 15.0055 19.5119 15.0055C19.8785 15.0055 20.1783 14.7107 20.1783 14.3505V2.53475C20.1783 1.13638 19.0221 0 17.5994 0H5.57753Z" fill="#333333"/>
<path d="M11.8053 8.33789H5.38124C5.01472 8.33789 4.71484 8.63263 4.71484 8.99287C4.71484 9.3531 5.01472 9.64784 5.38124 9.64784H11.8053C12.1718 9.64784 12.4717 9.3531 12.4717 8.99287C12.4717 8.63263 12.1718 8.33789 11.8053 8.33789Z" fill="#333333"/>
<path d="M11.8053 13.1355H5.38124C5.01472 13.1355 4.71484 13.4302 4.71484 13.7905C4.71484 14.1507 5.01472 14.4454 5.38124 14.4454H11.8053C12.1718 14.4454 12.4717 14.1507 12.4717 13.7905C12.4717 13.4302 12.1718 13.1355 11.8053 13.1355Z" fill="#333333"/>
</svg>
