<svg width="15" height="20" viewBox="0 0 15 20" fill="none" xmlns="http://www.w3.org/2000/svg">
<path d="M14.2076 20.008H4.6355C4.42534 20.008 4.2238 19.9236 4.07519 19.7735C3.92659 19.6233 3.84311 19.4196 3.84311 19.2073V15.9923C3.84311 15.7799 3.92659 15.5763 4.07519 15.4261C4.2238 15.2759 4.42534 15.1916 4.6355 15.1916C4.84566 15.1916 5.0472 15.2759 5.19581 15.4261C5.34441 15.5763 5.42789 15.7799 5.42789 15.9923V18.4065H13.4152V1.99148H5.42789V4.50979C5.42789 4.72216 5.34441 4.92583 5.19581 5.076C5.0472 5.22616 4.84566 5.31052 4.6355 5.31052C4.42534 5.31052 4.2238 5.22616 4.07519 5.076C3.92659 4.92583 3.84311 4.72216 3.84311 4.50979V1.19075C3.84311 0.978381 3.92659 0.774711 4.07519 0.624544C4.2238 0.474377 4.42534 0.390015 4.6355 0.390015H14.2076C14.4178 0.390015 14.6193 0.474377 14.7679 0.624544C14.9165 0.774711 15 0.978381 15 1.19075V19.2073C15 19.4196 14.9165 19.6233 14.7679 19.7735C14.6193 19.9236 14.4178 20.008 14.2076 20.008ZM7.21672 14.1046C7.07337 14.1048 6.93266 14.0657 6.80956 13.9915C6.68645 13.9173 6.58558 13.8107 6.51768 13.6831C6.44978 13.5556 6.4174 13.4118 6.42398 13.2671C6.43057 13.1224 6.47587 12.9822 6.55507 12.8614L7.81498 10.9357H0.792393C0.582237 10.9357 0.380689 10.8513 0.232087 10.7012C0.083484 10.551 0 10.3473 0 10.1349C0 9.92258 0.083484 9.71891 0.232087 9.56874C0.380689 9.41858 0.582237 9.33421 0.792393 9.33421H7.81101L6.62242 7.53256C6.56263 7.44507 6.52067 7.34642 6.49901 7.24237C6.47735 7.13831 6.47641 7.03094 6.49625 6.92652C6.5161 6.8221 6.55632 6.72272 6.61458 6.63417C6.67284 6.54563 6.74797 6.46969 6.83558 6.4108C6.92319 6.35192 7.02153 6.31125 7.12486 6.29118C7.22819 6.27111 7.33444 6.27203 7.43742 6.2939C7.54039 6.31578 7.63802 6.35815 7.72461 6.41856C7.8112 6.47897 7.88502 6.5562 7.94176 6.64575L9.94651 9.68854L9.96038 9.71056C10.0619 9.87233 10.1027 10.0655 10.0753 10.2551C10.0695 10.2924 10.0609 10.3292 10.0495 10.3652C10.0257 10.4485 9.98889 10.5276 9.94057 10.5994L7.87837 13.7443C7.80622 13.855 7.70799 13.9458 7.59251 14.0087C7.47703 14.0716 7.3479 14.1046 7.21672 14.1046Z" fill="#333333"/>
</svg>
