<svg width="20" height="20" viewBox="0 0 20 20" fill="none" xmlns="http://www.w3.org/2000/svg">
<g clip-path="url(#clip0_273_2295)">
<path d="M1.66663 5.83335L5.34163 2.15835C5.49667 2.00238 5.68106 1.87864 5.88415 1.79425C6.08725 1.70987 6.30503 1.66651 6.52496 1.66669H13.475C13.6949 1.66651 13.9127 1.70987 14.1158 1.79425C14.3189 1.87864 14.5032 2.00238 14.6583 2.15835L18.3333 5.83335" stroke="#333333" stroke-width="1.5" stroke-linecap="round" stroke-linejoin="round"/>
<path d="M3.33337 10V16.6667C3.33337 17.1087 3.50897 17.5326 3.82153 17.8452C4.13409 18.1577 4.55801 18.3333 5.00004 18.3333H15C15.4421 18.3333 15.866 18.1577 16.1786 17.8452C16.4911 17.5326 16.6667 17.1087 16.6667 16.6667V10" stroke="#333333" stroke-width="1.5" stroke-linecap="round" stroke-linejoin="round"/>
<path d="M12.5 18.3333V15C12.5 14.558 12.3244 14.134 12.0118 13.8215C11.6993 13.5089 11.2754 13.3333 10.8333 13.3333H9.16667C8.72464 13.3333 8.30072 13.5089 7.98816 13.8215C7.6756 14.134 7.5 14.558 7.5 15V18.3333" stroke="#333333" stroke-width="1.5" stroke-linecap="round" stroke-linejoin="round"/>
<path d="M1.66663 5.83331H18.3333" stroke="#333333" stroke-width="1.5" stroke-linecap="round" stroke-linejoin="round"/>
<path d="M18.3333 5.83331V8.33331C18.3333 8.77534 18.1577 9.19926 17.8451 9.51182C17.5326 9.82438 17.1087 9.99998 16.6666 9.99998C16.1797 9.97318 15.7147 9.78893 15.3416 9.47498C15.2422 9.40313 15.1226 9.36445 15 9.36445C14.8773 9.36445 14.7577 9.40313 14.6583 9.47498C14.2852 9.78893 13.8202 9.97318 13.3333 9.99998C12.8464 9.97318 12.3814 9.78893 12.0083 9.47498C11.9089 9.40313 11.7893 9.36445 11.6666 9.36445C11.5439 9.36445 11.4244 9.40313 11.325 9.47498C10.9519 9.78893 10.4868 9.97318 9.99996 9.99998C9.51307 9.97318 9.04807 9.78893 8.67496 9.47498C8.57553 9.40313 8.45597 9.36445 8.33329 9.36445C8.21061 9.36445 8.09106 9.40313 7.99163 9.47498C7.61852 9.78893 7.15351 9.97318 6.66663 9.99998C6.17974 9.97318 5.71473 9.78893 5.34163 9.47498C5.24219 9.40313 5.12264 9.36445 4.99996 9.36445C4.87728 9.36445 4.75773 9.40313 4.65829 9.47498C4.28518 9.78893 3.82018 9.97318 3.33329 9.99998C2.89127 9.99998 2.46734 9.82438 2.15478 9.51182C1.84222 9.19926 1.66663 8.77534 1.66663 8.33331V5.83331" stroke="#333333" stroke-width="1.5" stroke-linecap="round" stroke-linejoin="round"/>
</g>
<defs>
<clipPath id="clip0_273_2295">
<rect width="20" height="20" fill="white"/>
</clipPath>
</defs>
</svg>
