<svg width="20" height="20" viewBox="0 0 20 20" fill="none" xmlns="http://www.w3.org/2000/svg">
<path d="M18.4771 10.4011C18.2394 10.4011 18.0143 10.4559 17.8137 10.5533C17.5204 10.1869 17.0697 9.95179 16.565 9.95179C16.1891 9.95179 15.843 10.082 15.5698 10.2999C15.4684 10.219 15.3567 10.1501 15.2375 10.0958C15.8052 9.45793 16.1403 8.62173 16.1403 7.73143C16.1403 5.77178 14.546 4.17776 12.5866 4.17776C12.2894 4.17776 12.0006 4.21457 11.7246 4.28369C11.2343 3.72873 10.6387 3.26517 9.98159 2.93034C9.80779 2.84169 9.62923 2.7628 9.44716 2.69218V2.10441C9.44716 0.94389 8.50302 0 7.34276 0C6.18249 0 5.23935 0.94414 5.23935 2.10441V2.68892C3.05105 3.53539 1.49485 5.66184 1.49485 8.14515V13.3239C1.49485 13.7632 1.13748 14.1203 0.698463 14.1203H0.604801C0.27072 14.1203 0 14.391 0 14.7251C0 15.0592 0.27072 15.3299 0.604801 15.3299H4.81737C5.0047 16.556 6.06579 17.4982 7.34276 17.4982C8.10458 17.4982 8.8063 17.1546 9.28113 16.6031L10.0217 17.8861C10.7973 19.2297 12.1323 20 13.684 20H15.7712C18.1032 20 20.0005 18.1027 20.0005 15.7707V11.9235C20.0005 11.0838 19.3176 10.4008 18.4779 10.4008L18.4771 10.4011ZM14.9302 7.73118C14.9302 8.39258 14.6497 9.00865 14.1854 9.44341V7.73118C14.1854 6.84865 13.4679 6.1309 12.5861 6.1309C11.7043 6.1309 10.9868 6.8489 10.9868 7.73118V9.44391C10.5225 9.0089 10.242 8.39283 10.242 7.73118C10.242 6.43869 11.2936 5.38711 12.5861 5.38711C13.8786 5.38711 14.9302 6.43869 14.9302 7.73118ZM6.44845 2.10416C6.44845 1.6108 6.8494 1.20935 7.34201 1.20935C7.83461 1.20935 8.23681 1.6108 8.23681 2.10416V2.36736C7.94105 2.32103 7.64153 2.29724 7.34201 2.29724C7.03823 2.29724 6.73971 2.32053 6.44845 2.36536V2.10416ZM2.70395 13.3237V8.1449C2.70395 5.58746 4.78456 3.50684 7.34201 3.50684C8.55987 3.50684 9.69985 3.97591 10.5606 4.81286C9.63775 5.45548 9.03244 6.52384 9.03244 7.73118C9.03244 9.08128 9.80253 10.3072 10.9868 10.9049V12.777C10.3512 11.8348 9.10732 11.5513 8.08379 12.1416C7.5138 12.4729 7.31847 13.2059 7.64804 13.7749L7.84738 14.1205H2.53866C2.64485 13.8761 2.70395 13.6069 2.70395 13.3242V13.3237ZM7.34201 16.2883C6.73495 16.2883 6.22081 15.8836 6.05402 15.3299H8.5456L8.59919 15.4228C8.40185 15.9347 7.90273 16.2883 7.34201 16.2883ZM18.7899 15.7707C18.7899 17.4355 17.4353 18.7901 15.7704 18.7901H13.6833C12.5753 18.7901 11.6222 18.2399 11.0685 17.281L8.70212 13.1809C9.18846 12.9082 9.75395 13.0499 10.0219 13.514L11.0677 15.3244C11.2047 15.5615 11.484 15.677 11.7482 15.6061C12.0126 15.5352 12.1964 15.2956 12.1964 15.0219V7.73068C12.1964 7.51531 12.3712 7.34 12.5859 7.34C12.797 7.34 12.9755 7.51881 12.9755 7.73068V13.2375C12.9755 13.5716 13.2463 13.8423 13.5803 13.8423C13.9144 13.8423 14.1851 13.5716 14.1851 13.2375V11.5516C14.1851 11.3362 14.3599 11.1609 14.5746 11.1609C14.7892 11.1609 14.9642 11.3362 14.9642 11.5516V13.2375C14.9642 13.5716 15.235 13.8423 15.569 13.8423C15.9031 13.8423 16.1739 13.5716 16.1739 13.2375V11.5516C16.1739 11.3397 16.3527 11.1609 16.5645 11.1609C16.7764 11.1609 16.9542 11.3397 16.9542 11.5516V13.2388C16.9542 13.5728 17.2249 13.8436 17.559 13.8436C17.8931 13.8436 18.1638 13.5728 18.1638 13.2388V11.9232C18.1638 11.7507 18.3043 11.6102 18.4769 11.6102C18.6464 11.6102 18.7899 11.7534 18.7899 11.9232V15.7707Z" fill="#333333"/>
</svg>
