<svg width="21" height="18" viewBox="0 0 21 18" fill="none" xmlns="http://www.w3.org/2000/svg">
<path d="M15.9063 0.199951H5.71875C2.91719 0.199951 0.625 2.45687 0.625 5.21534V12.3802C0.625 15.1386 2.91719 17.3956 5.71875 17.3956H15.9063C18.7078 17.3956 21 15.1386 21 12.3802V5.21534C21 2.45687 18.7078 0.199951 15.9063 0.199951ZM19.5446 12.3802C19.5446 14.3505 17.9074 15.9626 15.9063 15.9626H5.71875C3.71763 15.9626 2.08036 14.3505 2.08036 12.3802V5.21534C2.08036 3.24501 3.71763 1.63292 5.71875 1.63292H15.9063C17.9074 1.63292 19.5446 3.24501 19.5446 5.21534V12.3802Z" fill="#333333"/>
<path d="M13.0318 8.08123L9.79368 6.50497C9.24792 6.2542 8.62939 6.61244 8.62939 7.22145V10.4098C8.62939 10.983 9.24792 11.3771 9.79368 11.1263L13.0318 9.55002C13.614 9.2276 13.614 8.36782 13.0318 8.08123Z" fill="#333333"/>
</svg>
