<svg width="37" height="37" viewBox="0 0 37 37" fill="none" xmlns="http://www.w3.org/2000/svg">
<rect width="37" height="37" fill="white"/>
<path d="M9.25001 13.875H6.93751C5.91532 13.875 4.935 13.469 4.2122 12.7462C3.48941 12.0234 3.08334 11.043 3.08334 10.0209C3.08334 8.99867 3.48941 8.01834 4.2122 7.29555C4.935 6.57275 5.91532 6.16669 6.93751 6.16669H9.25001" stroke="black" stroke-width="1.5" stroke-linecap="round" stroke-linejoin="round"/>
<path d="M27.75 13.875H30.0625C31.0847 13.875 32.065 13.469 32.7878 12.7462C33.5106 12.0234 33.9167 11.043 33.9167 10.0209C33.9167 8.99867 33.5106 8.01834 32.7878 7.29555C32.065 6.57275 31.0847 6.16669 30.0625 6.16669H27.75" stroke="black" stroke-width="1.5" stroke-linecap="round" stroke-linejoin="round"/>
<path d="M6.16666 33.9167H30.8333H6.16666Z" fill="#D9D9D9"/>
<path d="M6.16666 33.9167H30.8333" stroke="black" stroke-width="1.5" stroke-linecap="round" stroke-linejoin="round"/>
<path d="M15.4167 22.6008V26.2083C15.4167 27.0562 14.6921 27.7192 13.9212 28.0737C12.1021 28.9062 10.7917 31.2033 10.7917 33.9167" fill="#D9D9D9"/>
<path d="M15.4167 22.6008V26.2083C15.4167 27.0562 14.6921 27.7192 13.9212 28.0737C12.1021 28.9062 10.7917 31.2033 10.7917 33.9167" stroke="black" stroke-width="1.5" stroke-linecap="round" stroke-linejoin="round"/>
<path d="M21.5833 22.6008V26.2083C21.5833 27.0562 22.3079 27.7192 23.0788 28.0737C24.8979 28.9062 26.2083 31.2033 26.2083 33.9167" fill="#D9D9D9"/>
<path d="M21.5833 22.6008V26.2083C21.5833 27.0562 22.3079 27.7192 23.0788 28.0737C24.8979 28.9062 26.2083 31.2033 26.2083 33.9167" stroke="black" stroke-width="1.5" stroke-linecap="round" stroke-linejoin="round"/>
<path d="M27.5 3H9V13.7917C9 16.2449 9.97455 18.5977 11.7093 20.3324C13.444 22.0671 15.7967 23.0417 18.25 23.0417C20.7033 23.0417 23.056 22.0671 24.7907 20.3324C26.5254 18.5977 27.5 16.2449 27.5 13.7917V3Z" fill="#EB173C" stroke="black" stroke-width="1.5" stroke-linecap="round" stroke-linejoin="round"/>
<path d="M18.25 8L17.3528 10.7389C17.3068 10.8811 17.2278 11.0104 17.1221 11.1162C17.0165 11.2219 16.8872 11.3011 16.745 11.3471L14 12.25L16.7389 13.1472C16.8811 13.1932 17.0104 13.2722 17.1162 13.3779C17.2219 13.4835 17.3011 13.6128 17.3471 13.755L18.25 16.5L19.1472 13.7611C19.1932 13.6189 19.2722 13.4896 19.3779 13.3838C19.4835 13.2781 19.6128 13.1989 19.755 13.1529L22.5 12.25L19.7611 11.3528C19.6189 11.3068 19.4896 11.2278 19.3838 11.1221C19.2781 11.0165 19.1989 10.8872 19.1529 10.745L18.25 8Z" stroke="black" stroke-width="1.5" stroke-linecap="round" stroke-linejoin="round"/>
</svg>
