<svg width="34" height="34" viewBox="0 0 34 34" fill="none" xmlns="http://www.w3.org/2000/svg">
<circle cx="17.025" cy="17.075" r="15.75" fill="white" stroke="#D4D4D4" stroke-width="1.05"/>
<path d="M20.6317 26.5883C21.82 26.5883 22.7868 25.6039 22.7868 24.394C22.7868 23.1841 21.82 22.1997 20.6317 22.1997C19.4433 22.1997 18.4766 23.1841 18.4766 24.394C18.4766 25.6039 19.4433 26.5883 20.6317 26.5883ZM20.6317 23.5623C21.0821 23.5623 21.4485 23.9354 21.4485 24.394C21.4485 24.8526 21.0821 25.2257 20.6317 25.2257C20.1812 25.2257 19.8148 24.8526 19.8148 24.394C19.8148 23.9354 20.1813 23.5623 20.6317 23.5623Z" fill="#ED2227" stroke="white" stroke-width="0.21"/>
<path d="M24.0849 14.244C23.958 14.0797 23.7641 13.9837 23.5588 13.9837H12.1179L11.7555 12.1269C11.5332 10.9522 10.5104 10.1 9.3224 10.1H8.31756C7.94802 10.1 7.64844 10.405 7.64844 10.7813C7.64844 11.1575 7.94802 11.4626 8.31756 11.4626H9.3224C9.87912 11.4626 10.3393 11.8422 10.4416 12.3859C10.4419 12.3874 10.4421 12.389 10.4424 12.3906L11.9446 20.0857C12.1445 21.1098 13.0339 21.8531 14.0593 21.8531H20.8354C21.8153 21.8531 22.6731 21.1789 22.9212 20.2137C22.9222 20.2099 22.9231 20.2061 22.9241 20.2022L24.2089 14.8261C24.2574 14.623 24.2117 14.4084 24.0849 14.244ZM21.6254 19.8734C21.5296 20.237 21.2055 20.4904 20.8354 20.4904H14.0593C13.6704 20.4904 13.333 20.2085 13.2572 19.8201L12.3839 15.3463H22.7073L21.6254 19.8734Z" fill="#ED2227" stroke="white" stroke-width="0.21"/>
<path d="M14.2132 22.1997C13.0249 22.1997 12.0581 23.1841 12.0581 24.394C12.0581 25.6039 13.0249 26.5883 14.2132 26.5883C15.4015 26.5883 16.3683 25.6039 16.3683 24.394C16.3683 23.1841 15.4015 22.1997 14.2132 22.1997ZM14.2132 25.2257C13.7628 25.2257 13.3964 24.8526 13.3964 24.394C13.3964 23.9354 13.7628 23.5623 14.2132 23.5623C14.6636 23.5623 15.0301 23.9354 15.0301 24.394C15.0301 24.8526 14.6636 25.2257 14.2132 25.2257Z" fill="#ED2227" stroke="white" stroke-width="0.21"/>
</svg>
