<svg width="22" height="22" viewBox="0 0 22 22" fill="none" xmlns="http://www.w3.org/2000/svg">
<g opacity="0.9">
<path d="M3.9802 3.77236L4.0838 4.13501H4.46096H20.6454C21.0764 4.13501 21.3898 4.54505 21.2763 4.96121L19.2523 12.3829C19.2522 12.3829 19.2522 12.383 19.2522 12.383C19.1062 12.9184 18.6197 13.29 18.0645 13.29H16.6172H14.7708H7.32771H6.82771V13.79C6.82771 13.8461 6.8147 13.9022 6.78907 13.9535C6.78906 13.9535 6.78905 13.9535 6.78905 13.9535L6.2392 15.0529L6.23918 15.0529C6.06776 15.3958 6.19547 15.693 6.27334 15.8194L6.27441 15.8212C6.35311 15.9478 6.56192 16.194 6.94459 16.194H18.8867V16.925H6.94459C6.41286 16.925 5.93165 16.6567 5.65203 16.2044C5.37258 15.752 5.34776 15.2015 5.58552 14.7259C5.58553 14.7259 5.58554 14.7259 5.58556 14.7258L5.9848 13.9277L6.07182 13.7537L6.01838 13.5666L2.77687 2.22136C2.60994 1.63708 2.07126 1.23096 1.46381 1.23096H0.5V0.5H1.46381C2.39373 0.5 3.22424 1.12638 3.47966 2.02035L3.9802 3.77236Z" stroke="white"/>
<path d="M8.73112 19.5599C8.73112 20.176 8.23166 20.6755 7.61556 20.6755C6.99945 20.6755 6.5 20.176 6.5 19.5599C6.5 18.9438 6.99945 18.4443 7.61556 18.4443C8.23166 18.4443 8.73112 18.9438 8.73112 19.5599Z" stroke="white"/>
<path d="M17.9635 19.5599C17.9635 20.176 17.4641 20.6755 16.848 20.6755C16.2319 20.6755 15.7324 20.176 15.7324 19.5599C15.7324 18.9438 16.2319 18.4443 16.848 18.4443C17.4641 18.4443 17.9635 18.9438 17.9635 19.5599Z" stroke="white"/>
</g>
</svg>
