<svg width="20" height="20" viewBox="0 0 20 20" fill="none" xmlns="http://www.w3.org/2000/svg">
<g clip-path="url(#clip0_273_2141)">
<path d="M11.6667 7.49999C11.6667 7.94202 11.4911 8.36594 11.1785 8.6785C10.866 8.99106 10.442 9.16666 10 9.16666H5L1.66667 12.5V3.33332C1.66667 2.41666 2.41667 1.66666 3.33333 1.66666H10C10.442 1.66666 10.866 1.84225 11.1785 2.15481C11.4911 2.46737 11.6667 2.8913 11.6667 3.33332V7.49999Z" stroke="white" stroke-width="1.5" stroke-linecap="round" stroke-linejoin="round"/>
<path d="M15 7.5H16.6667C17.1087 7.5 17.5326 7.6756 17.8452 7.98816C18.1577 8.30072 18.3333 8.72464 18.3333 9.16667V18.3333L15 15H10C9.55797 15 9.13405 14.8244 8.82149 14.5118C8.50893 14.1993 8.33333 13.7754 8.33333 13.3333V12.5" stroke="white" stroke-width="1.5" stroke-linecap="round" stroke-linejoin="round"/>
</g>
<defs>
<clipPath id="clip0_273_2141">
<rect width="20" height="20" fill="white"/>
</clipPath>
</defs>
</svg>
