<svg width="18" height="18" viewBox="0 0 18 18" fill="none" xmlns="http://www.w3.org/2000/svg">
<g opacity="0.5">
<path d="M5.6499 7.27502V15.675" stroke="black" stroke-width="1.05" stroke-linecap="round" stroke-linejoin="round"/>
<path d="M11.2499 4.39105L10.5499 7.27505H14.6309C14.8482 7.27505 15.0626 7.32565 15.257 7.42285C15.4514 7.52005 15.6205 7.66117 15.7509 7.83505C15.8813 8.00892 15.9694 8.21077 16.0083 8.42461C16.0472 8.63845 16.0358 8.8584 15.9749 9.06705L14.3439 14.667C14.2591 14.9579 14.0822 15.2133 13.8399 15.3951C13.5976 15.5768 13.3028 15.675 12.9999 15.675H3.5499C3.1786 15.675 2.8225 15.5275 2.55995 15.265C2.2974 15.0024 2.1499 14.6464 2.1499 14.275V8.67505C2.1499 8.30375 2.2974 7.94765 2.55995 7.6851C2.8225 7.42255 3.1786 7.27505 3.5499 7.27505H5.4819C5.74236 7.27491 5.99762 7.20212 6.21897 7.06485C6.44032 6.92759 6.619 6.7313 6.7349 6.49805L9.1499 1.67505C9.48001 1.67914 9.80492 1.75777 10.1004 1.90507C10.3958 2.05237 10.6542 2.26452 10.8561 2.52569C11.058 2.78686 11.1983 3.09028 11.2665 3.41329C11.3347 3.7363 11.329 4.07054 11.2499 4.39105Z" stroke="black" stroke-width="1.05" stroke-linecap="round" stroke-linejoin="round"/>
</g>
</svg>
