<svg width="18" height="15" viewBox="0 0 18 15" fill="none" xmlns="http://www.w3.org/2000/svg">
<path fill-rule="evenodd" clip-rule="evenodd" d="M9.99035 0.175049H7.24761C5.94352 0.175049 4.92058 0.175032 4.10536 0.258273C3.27382 0.343184 2.59461 0.519448 2.00262 0.914797C1.4943 1.25427 1.05995 1.69651 0.726538 2.21408C0.338249 2.81684 0.165133 3.5084 0.0817381 4.35505C-1.66589e-05 5.1851 0 6.22663 0 7.55443V7.62062C0 8.9484 -1.66589e-05 9.98995 0.0817381 10.82C0.165133 11.6667 0.338249 12.3582 0.726538 12.961C1.05995 13.4785 1.4943 13.9208 2.00262 14.2603C2.59461 14.6556 3.27382 14.8318 4.10536 14.9168C4.92058 15 5.9435 15 7.24754 15H9.99035C11.2944 15 12.3174 15 13.1326 14.9168C13.9641 14.8318 14.6433 14.6556 15.2353 14.2603C15.7436 13.9208 16.1781 13.4785 16.5115 12.961C16.8997 12.3582 17.0728 11.6667 17.1563 10.82C17.238 9.98995 17.238 8.94844 17.238 7.62069V7.55443C17.238 6.22668 17.238 5.1851 17.1563 4.35505C17.0728 3.5084 16.8997 2.81684 16.5115 2.21408C16.1781 1.69651 15.7436 1.25427 15.2353 0.914797C14.6433 0.519448 13.9641 0.343184 13.1326 0.258273C12.3174 0.175032 11.2944 0.175049 9.99035 0.175049ZM2.64514 1.91221C3.01453 1.6655 3.48183 1.52075 4.22226 1.44514C4.97223 1.36856 5.93649 1.36786 7.28011 1.36786H9.95785C11.3015 1.36786 12.2657 1.36856 13.0157 1.44514C13.7561 1.52075 14.2234 1.6655 14.5928 1.91221C14.6819 1.97168 14.7679 2.03546 14.8506 2.10326L13.6484 3.32717C12.3537 4.6455 11.4234 5.59094 10.6211 6.21417C9.83237 6.8269 9.23662 7.07174 8.61898 7.07174C8.00134 7.07174 7.40561 6.8269 6.61687 6.21417C5.81462 5.59094 4.8843 4.6455 3.58951 3.32717L2.38744 2.10325C2.47008 2.03546 2.55607 1.97168 2.64514 1.91221ZM1.62189 3.01067C1.43016 3.36459 1.31261 3.81214 1.24741 4.47408C1.1722 5.23768 1.17151 6.21947 1.17151 7.58752C1.17151 8.95558 1.1722 9.93736 1.24741 10.701C1.32167 11.4549 1.46384 11.9307 1.70612 12.3068C1.95147 12.6876 2.27109 13.013 2.64514 13.2628C3.01453 13.5095 3.48183 13.6543 4.22226 13.7298C4.97223 13.8065 5.93649 13.8072 7.28011 13.8072H9.95785C11.3015 13.8072 12.2657 13.8065 13.0157 13.7298C13.7561 13.6543 14.2234 13.5095 14.5928 13.2628C14.9669 13.013 15.2866 12.6876 15.5319 12.3068C15.7741 11.9307 15.9163 11.4549 15.9905 10.701C16.0658 9.93736 16.0664 8.95558 16.0664 7.58752C16.0664 6.21947 16.0658 5.23768 15.9905 4.47408C15.9254 3.81214 15.8077 3.36459 15.6161 3.01067L14.4452 4.20287C13.1889 5.48196 12.2038 6.48499 11.3317 7.16249C10.4388 7.85616 9.59575 8.26455 8.61898 8.26455C7.64221 8.26455 6.7992 7.85616 5.90624 7.16249C5.03414 6.48497 4.04903 5.48196 2.79278 4.20285L1.62189 3.01067Z" fill="#979797"/>
</svg>
