<svg width="30" height="30" viewBox="0 0 30 30" fill="none" xmlns="http://www.w3.org/2000/svg">
<path d="M15 0C17.543 0 19.9383 0.633984 22.0371 1.75078C21.0598 2.38359 20.4287 2.98359 19.9277 3.85137C18.4213 3.18457 16.7537 2.81367 15 2.81367C11.6344 2.81367 8.5875 4.17832 6.38262 6.38262C4.17832 8.5875 2.81367 11.6344 2.81367 15C2.81367 18.3656 4.17832 21.4125 6.38262 23.6174C8.5875 25.8217 11.6344 27.1863 15 27.1863C18.3656 27.1863 21.4125 25.8217 23.6174 23.6174C25.8217 21.4125 27.1863 18.3656 27.1863 15C27.1863 14.0197 27.0703 13.067 26.8518 12.1541C27.7289 11.6637 28.3928 10.749 29.1439 9.99316C29.6982 11.5594 30 13.2445 30 15C30 19.1414 28.3207 22.892 25.6061 25.6061C22.892 28.3207 19.1414 30 15 30C10.8586 30 7.10801 28.3207 4.39336 25.6061C1.6793 22.892 0 19.1414 0 15C0 10.8586 1.6793 7.10801 4.39336 4.39336C7.10801 1.6793 10.8586 0 15 0Z" fill="#201E32"/>
<path d="M13.518 19.8193H8.0623C7.90645 19.8193 7.79336 19.7824 7.72305 19.7092C7.65332 19.6353 7.61816 19.517 7.61816 19.3529V17.7844C7.61816 17.6203 7.65332 17.5013 7.72305 17.4281C7.79336 17.3543 7.90645 17.3179 8.0623 17.3179H9.44512V12.989H8.30957C8.15313 12.989 8.04004 12.9527 7.96973 12.8795C7.9 12.8056 7.86484 12.6867 7.86484 12.5226V10.9547C7.86484 10.79 7.9 10.6717 7.96973 10.5978C8.04004 10.5246 8.15313 10.4883 8.30957 10.4883H11.8885C12.0449 10.4883 12.158 10.5246 12.2283 10.5978C12.298 10.6717 12.3326 10.79 12.3326 10.9547V17.3179H13.518C13.6738 17.3179 13.7869 17.3543 13.8566 17.4281C13.927 17.5013 13.9621 17.6203 13.9621 17.7844V19.3529C13.9621 19.517 13.927 19.6353 13.8566 19.7092C13.7869 19.7824 13.6738 19.8193 13.518 19.8193ZM24.1615 3.03455H25.559C25.8438 3.03455 26.0764 3.26775 26.0764 3.55251V5.44919H27.9736C28.2584 5.44919 28.491 5.6824 28.491 5.96716V7.36462C28.491 7.64939 28.2584 7.88259 27.9736 7.88259H26.0764V9.77927C26.0764 10.0646 25.8438 10.2972 25.559 10.2972H24.1615C23.8768 10.2972 23.6436 10.0646 23.6436 9.77927V7.88259H21.7463C21.4615 7.88259 21.2283 7.64939 21.2283 7.36462V5.96716C21.2283 5.6824 21.4615 5.44919 21.7463 5.44919H23.6436V3.55251C23.6436 3.26775 23.8768 3.03455 24.1615 3.03455ZM22.3322 16.5011V17.7586C22.3322 18.0949 22.2725 18.4025 22.1535 18.6785C22.0346 18.9551 21.8301 19.1929 21.5424 19.391C21.2547 19.5902 20.8656 19.7437 20.3764 19.8515C19.8871 19.9594 19.2719 20.0133 18.5312 20.0133C17.7906 20.0133 17.173 19.9594 16.6803 19.8515C16.1863 19.7437 15.7955 19.5902 15.5078 19.391C15.2195 19.1929 15.0156 18.9551 14.8967 18.6785C14.7777 18.4025 14.718 18.0955 14.718 17.7586V16.5011C14.718 15.8965 14.8434 15.4295 15.0941 15.1013C15.3449 14.7738 15.6561 14.5705 16.0258 14.4926C15.7545 14.3713 15.5652 14.1902 15.4586 13.9482C15.3514 13.7062 15.2975 13.3365 15.2975 13.0084V12.2566C15.2975 11.9367 15.3514 11.6513 15.4586 11.4017C15.5646 11.151 15.7428 10.9365 15.9883 10.7595C16.2355 10.5832 16.5695 10.4461 16.9885 10.3517C17.408 10.2568 17.9266 10.2088 18.5436 10.2088C19.1605 10.2088 19.6773 10.2568 20.0928 10.3517C20.5076 10.4461 20.8375 10.5832 21.0801 10.7595C21.3221 10.9365 21.4955 11.151 21.598 11.4017C21.7006 11.6513 21.7521 11.9379 21.7521 12.2566V13.0084C21.7521 13.3353 21.6994 13.7062 21.5922 13.9482C21.485 14.1902 21.2957 14.3713 21.0244 14.4926C21.3947 14.5705 21.7053 14.7738 21.9561 15.1013C22.2074 15.4295 22.3322 15.897 22.3322 16.5011ZM17.6729 13.5984C17.6729 13.7326 17.7156 13.851 17.8023 13.9418C17.8885 14.0326 18.1855 14.0777 18.5312 14.0777C18.8852 14.0777 19.1828 14.0314 19.2602 13.9418C19.3369 13.8521 19.3773 13.7367 19.3773 13.5984V12.859C19.3773 12.7289 19.3375 12.6193 19.2602 12.5285C19.1816 12.4377 18.8852 12.392 18.5312 12.392C18.1855 12.392 17.8885 12.4377 17.8023 12.5285C17.7156 12.6193 17.6729 12.7312 17.6729 12.859V13.5984ZM17.3641 17.2658C17.3641 17.4011 17.435 17.5195 17.5738 17.6092C17.7133 17.6994 18.0871 17.7457 18.5312 17.7457C18.9754 17.7457 19.3469 17.6994 19.4822 17.6092C19.617 17.5195 19.6855 17.4041 19.6855 17.2658V16.4941C19.6855 16.3646 19.6176 16.2545 19.4822 16.1636C19.3463 16.0734 18.9754 16.0277 18.5312 16.0277C18.0871 16.0277 17.7133 16.0734 17.5738 16.1636C17.4338 16.2545 17.3641 16.3664 17.3641 16.4941V17.2658Z" fill="#201E32"/>
</svg>
