<svg width="18" height="17" viewBox="0 0 18 17" fill="none" xmlns="http://www.w3.org/2000/svg">
<path d="M15.1923 10.6656L14.0043 10.1024C12.9243 9.60956 12.3843 10.2784 11.6643 11.1936C11.4843 11.4048 11.2683 11.6864 11.0163 11.968C11.0163 11.968 11.0163 11.968 11.0163 12.0032C11.0163 12.0032 11.0163 12.0032 10.9803 12.0032C8.67629 11.1232 6.94829 9.67996 5.65229 7.56796C5.65229 7.56796 5.65229 7.56796 5.65229 7.53276C5.65229 7.53276 5.68829 7.49756 5.68829 7.46236C6.48029 6.58236 7.20029 5.77276 6.84029 4.75196C6.40829 3.66076 5.94029 2.60476 5.50829 1.61916C5.36429 1.37276 5.04029 0.774358 4.50029 0.703958H4.46429C3.70829 0.563158 2.66429 0.422358 1.80029 1.19676C-0.179706 2.99196 -0.539706 5.73756 0.900294 8.20156C4.39229 14.1152 9.61229 16.8608 13.2483 17.0016C13.3203 17.0016 13.4283 17.0016 13.5003 17.0016C14.4723 17.0016 15.8043 16.6848 16.8123 15.7344C17.6403 14.96 18.0363 13.904 18.0003 12.672C17.9643 11.9328 17.7123 11.8272 15.1923 10.6656ZM15.8043 14.7136C15.0843 15.3824 14.0763 15.6288 13.3203 15.5584H13.2843C10.0443 15.4528 5.32829 12.8832 2.12429 7.46236C1.00829 5.59676 1.26029 3.59036 2.77229 2.21756C2.95229 2.04156 3.16829 2.00636 3.42029 2.00636C3.60029 2.00636 3.85229 2.04156 4.10429 2.07676C4.14029 2.11196 4.14029 2.14716 4.17629 2.18236C4.60829 3.16796 5.07629 4.18876 5.47229 5.24476C5.54429 5.45596 5.07629 5.98396 4.60829 6.54716C4.14029 7.07516 4.06829 7.70876 4.42829 8.27196C5.86829 10.6304 7.88429 12.3552 10.4763 13.3056C11.1243 13.552 11.7363 13.376 12.1683 12.8832C12.4203 12.5664 12.6363 12.32 12.8163 12.0736C13.0323 11.792 13.2843 11.5104 13.4283 11.3696L14.6163 11.9328C15.6243 12.3904 16.3083 12.7072 16.5963 12.8832C16.5603 13.6224 16.3083 14.256 15.8043 14.7136Z" fill="#979797"/>
</svg>
