<svg width="16" height="16" viewBox="0 0 16 16" fill="none" xmlns="http://www.w3.org/2000/svg">
<g clip-path="url(#clip0_1_5677)">
<path d="M14.4871 12L9.15377 2.66665C9.03748 2.46146 8.86884 2.29078 8.66506 2.17203C8.46127 2.05329 8.22963 1.99072 7.99377 1.99072C7.75792 1.99072 7.52628 2.05329 7.32249 2.17203C7.11871 2.29078 6.95007 2.46146 6.83377 2.66665L1.50044 12C1.3829 12.2036 1.32126 12.4346 1.32178 12.6697C1.3223 12.9047 1.38496 13.1355 1.50341 13.3385C1.62185 13.5416 1.79187 13.7097 1.99624 13.8259C2.2006 13.942 2.43205 14.0021 2.66711 14H13.3338C13.5677 13.9997 13.7975 13.938 14 13.8208C14.2025 13.7037 14.3706 13.5354 14.4875 13.3327C14.6043 13.1301 14.6658 12.9002 14.6657 12.6663C14.6657 12.4324 14.6041 12.2026 14.4871 12Z" stroke="black" stroke-width="1.1" stroke-linecap="round" stroke-linejoin="round"/>
<path d="M8.00049 6V8.66667" stroke="black" stroke-width="1.1" stroke-linecap="round" stroke-linejoin="round"/>
<path d="M8.00049 11.3334H8.01049" stroke="black" stroke-width="2" stroke-linecap="round" stroke-linejoin="round"/>
</g>
<defs>
<clipPath id="clip0_1_5677">
<rect width="16" height="16" fill="white" transform="translate(0.000488281)"/>
</clipPath>
</defs>
</svg>
