<svg width="16" height="16" viewBox="0 0 16 16" fill="none" xmlns="http://www.w3.org/2000/svg">
<path d="M15.3014 14.0703L11.4854 10.2543C13.4041 7.75998 13.2122 4.15713 10.9098 1.87604C9.65201 0.61824 8.03179 0 6.39026 0C4.74873 0 3.12851 0.61824 1.87071 1.87604C-0.62357 4.37032 -0.62357 8.42086 1.87071 10.9151C3.12851 12.1729 4.74873 12.7912 6.39026 12.7912C7.75465 12.7912 9.11905 12.3648 10.2489 11.4907L14.0863 15.2855C14.2568 15.456 14.47 15.5413 14.7045 15.5413C14.9177 15.5413 15.1522 15.456 15.3228 15.2855C15.6425 14.9657 15.6425 14.4114 15.3014 14.0703ZM6.41158 11.0644C5.15378 11.0644 4.00257 10.574 3.10719 9.69998C1.29511 7.88789 1.29511 4.9246 3.10719 3.0912C3.98125 2.21714 5.15378 1.72681 6.41158 1.72681C7.66938 1.72681 8.82058 2.21714 9.71597 3.0912C10.6113 3.96527 11.0804 5.13779 11.0804 6.39559C11.0804 7.65339 10.59 8.80459 9.71597 9.69998C8.8419 10.5954 7.64806 11.0644 6.41158 11.0644Z" fill="#D2D2D2"/>
</svg>
