<svg width="20" height="20" viewBox="0 0 20 20" fill="none" xmlns="http://www.w3.org/2000/svg">
<path d="M12.4993 1.66663H7.49935C7.03911 1.66663 6.66602 2.03972 6.66602 2.49996V4.16663C6.66602 4.62686 7.03911 4.99996 7.49935 4.99996H12.4993C12.9596 4.99996 13.3327 4.62686 13.3327 4.16663V2.49996C13.3327 2.03972 12.9596 1.66663 12.4993 1.66663Z" stroke="white" stroke-width="1.5" stroke-linecap="round" stroke-linejoin="round"/>
<path d="M13.334 3.33337H15.0006C15.4427 3.33337 15.8666 3.50897 16.1792 3.82153C16.4917 4.13409 16.6673 4.55801 16.6673 5.00004V16.6667C16.6673 17.1087 16.4917 17.5327 16.1792 17.8452C15.8666 18.1578 15.4427 18.3334 15.0006 18.3334H5.00065C4.55862 18.3334 4.1347 18.1578 3.82214 17.8452C3.50958 17.5327 3.33398 17.1087 3.33398 16.6667V5.00004C3.33398 4.55801 3.50958 4.13409 3.82214 3.82153C4.1347 3.50897 4.55862 3.33337 5.00065 3.33337H6.66732" stroke="white" stroke-width="1.5" stroke-linecap="round" stroke-linejoin="round"/>
<path d="M7.5 9.99996V9.16663H12.5V9.99996" stroke="white" stroke-width="1.5" stroke-linecap="round" stroke-linejoin="round"/>
<path d="M9.16602 14.1666H10.8327" stroke="white" stroke-width="1.5" stroke-linecap="round" stroke-linejoin="round"/>
<path d="M10 9.16663V14.1666" stroke="white" stroke-width="1.5" stroke-linecap="round" stroke-linejoin="round"/>
</svg>
