<svg width="19" height="19" viewBox="0 0 19 19" fill="none" xmlns="http://www.w3.org/2000/svg">
<path d="M15.0417 2.375H3.95833C3.08388 2.375 2.375 3.08388 2.375 3.95833V15.0417C2.375 15.9161 3.08388 16.625 3.95833 16.625H15.0417C15.9161 16.625 16.625 15.9161 16.625 15.0417V3.95833C16.625 3.08388 15.9161 2.375 15.0417 2.375Z" stroke="white" stroke-width="1.5" stroke-linecap="round" stroke-linejoin="round"/>
<path d="M7.12435 8.70829C7.9988 8.70829 8.70768 7.99941 8.70768 7.12496C8.70768 6.25051 7.9988 5.54163 7.12435 5.54163C6.2499 5.54163 5.54102 6.25051 5.54102 7.12496C5.54102 7.99941 6.2499 8.70829 7.12435 8.70829Z" stroke="white" stroke-width="1.5" stroke-linecap="round" stroke-linejoin="round"/>
<path d="M16.625 11.875L14.1819 9.43196C13.885 9.13513 13.4823 8.96838 13.0625 8.96838C12.6427 8.96838 12.24 9.13513 11.9431 9.43196L4.75 16.625" stroke="white" stroke-width="1.5" stroke-linecap="round" stroke-linejoin="round"/>
</svg>
