<svg width="36" height="36" viewBox="0 0 36 36" fill="none" xmlns="http://www.w3.org/2000/svg">
<path d="M10.815 22.5L3.99 10.71C3.6957 10.2013 3.55729 9.61738 3.59196 9.03072C3.62662 8.44405 3.83284 7.88049 4.185 7.41L6.6 4.2C6.87944 3.82741 7.24179 3.525 7.65835 3.31672C8.07492 3.10844 8.53426 3 9 3H27C27.4657 3 27.9251 3.10844 28.3416 3.31672C28.7582 3.525 29.1206 3.82741 29.4 4.2L31.8 7.41C32.1545 7.87898 32.3634 8.44177 32.4007 9.02845C32.438 9.61514 32.3022 10.1999 32.01 10.71L25.185 22.5" stroke="black" stroke-width="1.5" stroke-linecap="round" stroke-linejoin="round"/>
<path d="M16.5 18L7.67999 3.29999" stroke="black" stroke-width="1.5" stroke-linecap="round" stroke-linejoin="round"/>
<path d="M19.5 18L28.32 3.29999" stroke="black" stroke-width="1.5" stroke-linecap="round" stroke-linejoin="round"/>
<path d="M12 10.5H24" stroke="black" stroke-width="1.5" stroke-linecap="round" stroke-linejoin="round"/>
<path d="M18 33C22.1421 33 25.5 29.6421 25.5 25.5C25.5 21.3579 22.1421 18 18 18C13.8579 18 10.5 21.3579 10.5 25.5C10.5 29.6421 13.8579 33 18 33Z" fill="#EB173C" stroke="black" stroke-width="1.5" stroke-linecap="round" stroke-linejoin="round"/>
<path d="M18 27V24H17.25" stroke="black" stroke-width="2" stroke-linecap="round" stroke-linejoin="round"/>
</svg>
